<svg id="Layer_1" data-name="Layer 1" xmlns="http://www.w3.org/2000/svg" viewBox="0 0 21 21"><defs><style>.cls-1{fill:none;stroke:#f34e47;stroke-linecap:round;stroke-linejoin:round;}</style></defs><title>emoji-sad</title><path class="cls-1" d="M9,22h6c5,0,7-2,7-7V9c0-5-2-7-7-7H9C4,2,2,4,2,9v6C2,20,4,22,9,22Z" transform="translate(-1.5 -1.5)"/><path class="cls-1" d="M7,8.75a2.58,2.58,0,0,1,3.64,0" transform="translate(-1.5 -1.5)"/><path class="cls-1" d="M13.36,8.75a2.58,2.58,0,0,1,3.64,0" transform="translate(-1.5 -1.5)"/><path class="cls-1" d="M8.4,17.7h7.2a.9.9,0,0,0,.9-.9,4.5,4.5,0,0,0-9,0A.9.9,0,0,0,8.4,17.7Z" transform="translate(-1.5 -1.5)"/></svg>