<svg id="Layer_1" data-name="Layer 1" xmlns="http://www.w3.org/2000/svg" viewBox="0 0 21 21"><defs><style>.cls-1{fill:none;stroke:#68d8af;stroke-linecap:round;stroke-linejoin:round;}</style></defs><title>emoji-happy</title><path class="cls-1" d="M9,22h6c5,0,7-2,7-7V9c0-5-2-7-7-7H9C4,2,2,4,2,9v6C2,20,4,22,9,22Z" transform="translate(-1.5 -1.5)"/><path class="cls-1" d="M15.5,9.75A1.5,1.5,0,1,0,14,8.25,1.5,1.5,0,0,0,15.5,9.75Z" transform="translate(-1.5 -1.5)"/><path class="cls-1" d="M8.5,9.75A1.5,1.5,0,1,0,7,8.25,1.5,1.5,0,0,0,8.5,9.75Z" transform="translate(-1.5 -1.5)"/><path class="cls-1" d="M8.4,13.3h7.2a.9.9,0,0,1,.9.9,4.5,4.5,0,0,1-9,0A.9.9,0,0,1,8.4,13.3Z" transform="translate(-1.5 -1.5)"/></svg>