<svg id="Layer_1" data-name="Layer 1" xmlns="http://www.w3.org/2000/svg" viewBox="0 0 48 48"><defs><style>.cls-1{fill:none;}</style></defs><title>Shopicons_Light_Cross</title><path class="cls-1" d="M0,0H48V48H0Z"/><g id="Shopicon"><path d="M35.31,12.69h0A.93.93,0,0,0,34,12.6l-.09.09L24,22.59l-9.9-9.9a1,1,0,0,0-1.33-.09l-.08.09h0A.93.93,0,0,0,12.6,14l.09.09,9.9,9.9-9.9,9.9a1,1,0,0,0-.09,1.33l.09.08h0A.93.93,0,0,0,14,35.4l.09-.09,9.9-9.9,9.9,9.9a1,1,0,0,0,1.33.09l.08-.09h0A.93.93,0,0,0,35.4,34l-.09-.09L25.41,24l9.9-9.9a1,1,0,0,0,.09-1.33Z"/></g></svg>